<?xml version="1.0" encoding="UTF-8"?>
<svg width="512" height="512" version="1.1" viewBox="0 0 512 512" xmlns="http://www.w3.org/2000/svg">
 <path d="m-1.6875-1.1992c-0.0089858 0.0018771-0.017312 0.0075466-0.023438 0.013672-7.88e-4 9.557e-4 -0.0031549 0.0047547-0.0039063 0.0058594-0.0041824 0.0073498-0.0078124 0.017345-0.0078124 0.025391v514.29c-1e-7 0.01073 0.005693 0.02346 0.011719 0.03125 0.0019193 0.00204 0.0074874 0.00619 0.0097656 0.00781 0.006099 0.00349 0.013821 0.00586 0.021484 0.00586h515.09c0.0092 0 0.01833-0.00305 0.02539-0.00781 0.00922-0.00759 0.01843-0.02404 0.01953-0.03711v-514.29c0-0.010728-0.00541-0.021651-0.01171-0.029297-1e-3 -1e-3 -0.00477-0.0049587-0.00586-0.0058593-0.00707-0.0047633-0.01815-0.0097657-0.02735-0.0097657h-515.09-0.0019531-0.0019532c-0.0013051 1.318e-4 -0.0026225-2.681e-4 -0.0039062 0zm197.55 107.16h286.18c0.1965 0 0.35547 0.15702 0.35547 0.35352v35.529c0 0.1965-0.15897 0.35547-0.35547 0.35547h-90.24v39.613 1.8184 0.00391 33.705c0 0.19649-0.15897 0.35547-0.35547 0.35547h-75.121v43.645c1e-5 0.04154-0.00848 0.08214-0.02148 0.11914v31.379c0 0.1965-0.15701 0.35352-0.35352 0.35352h-286.18c-0.1965 0-0.35547-0.15702-0.35547-0.35352v-35.529c0-0.1965 0.15897-0.35547 0.35547-0.35547h250.3v-39.258h-174.8c-0.19649 0-0.35546-0.15898-0.35546-0.35547v-35.527c0-0.19649 0.15897-0.35544 0.35546-0.35547h250.29v-39.258h-159.7c-0.1965 0-0.35352-0.15897-0.35352-0.35547v-35.529c0-0.1965 0.15702-0.35352 0.35352-0.35352zm119.93 247.8h13.332v26.666h53.334v66.666h-66.666v-93.332zm-173.33 13.332h13.332v13.334h40v13.334h-40v40h26.668v-13.334h13.332v26.666h-53.332v-53.332h-13.334v-13.334h13.334v-13.334zm-106.67 13.334h66.668v13.334h-53.334v13.332h53.334v40h-53.334v-13.332h40v-13.334h-53.334v-40zm186.67 0h66.666v40h-53.334v13.334h40v13.332h-53.332v-66.666zm186.67 0h66.668v40h-53.334v13.334h40v13.332h-53.334v-40h53.334v-13.332h-53.334v-13.334zm-173.33 13.334v13.332h40v-13.332h-40zm93.334 0v40h40v-40h-40z" fill="#4db560" stroke-width=".98354"/>
</svg>
